<?xml version="1.0" encoding="UTF-8" standalone="no"?>
<!-- Created with Inkscape (http://www.inkscape.org/) -->

<svg
   width="210mm"
   height="297mm"
   viewBox="0 0 210 297"
   version="1.1"
   id="svg1"
   inkscape:version="1.4.2 (ebf0e940d0, 2025-05-08)"
   sodipodi:docname="assets.svg"
   inkscape:export-filename="res/img/ui/ScaleGrid.png"
   inkscape:export-xdpi="24.228968"
   inkscape:export-ydpi="24.228968"
   xmlns:inkscape="http://www.inkscape.org/namespaces/inkscape"
   xmlns:sodipodi="http://sodipodi.sourceforge.net/DTD/sodipodi-0.dtd"
   xmlns="http://www.w3.org/2000/svg"
   xmlns:svg="http://www.w3.org/2000/svg">
  <sodipodi:namedview
     id="namedview1"
     pagecolor="#ffffff"
     bordercolor="#666666"
     borderopacity="1.0"
     inkscape:showpageshadow="2"
     inkscape:pageopacity="0.0"
     inkscape:pagecheckerboard="0"
     inkscape:deskcolor="#d1d1d1"
     inkscape:document-units="mm"
     inkscape:zoom="1.0785409"
     inkscape:cx="271.19973"
     inkscape:cy="361.13605"
     inkscape:window-width="1920"
     inkscape:window-height="1080"
     inkscape:window-x="1080"
     inkscape:window-y="0"
     inkscape:window-maximized="1"
     inkscape:current-layer="layer1"
     showguides="false" />
  <defs
     id="defs1">
    <filter
       inkscape:label="Velvet Bumps"
       inkscape:menu="Bumps"
       inkscape:menu-tooltip="Gives Smooth Bumps velvet like"
       style="color-interpolation-filters:sRGB;"
       id="filter56"
       x="-0.073112513"
       y="-0.073112513"
       width="1.146225"
       height="1.146225">
      <feGaussianBlur
         stdDeviation="1"
         result="result3"
         id="feGaussianBlur55" />
      <feBlend
         in2="result3"
         result="result5"
         mode="screen"
         in="SourceGraphic"
         id="feBlend55" />
      <feGaussianBlur
         stdDeviation="1"
         result="result7"
         id="feGaussianBlur56" />
      <feConvolveMatrix
         order="3 3"
         kernelMatrix="2 0 0 1 1 -1 0 0 -2 "
         targetX="1"
         targetY="1"
         result="result8"
         id="feConvolveMatrix56" />
      <feBlend
         mode="darken"
         in="result7"
         result="result6"
         in2="result8"
         id="feBlend56" />
    </filter>
    <filter
       y="-0.10752364"
       height="1.2150473"
       inkscape:label="Rough and Dilate"
       inkscape:menu="Distort"
       inkscape:menu-tooltip="Create a turbulent contour around"
       style="color-interpolation-filters:sRGB;"
       id="filter57"
       x="-0.10662228"
       width="1.2132446">
      <feMorphology
         radius="7"
         operator="dilate"
         result="result8"
         in="SourceGraphic"
         id="feMorphology56" />
      <feComposite
         in2="result8"
         result="result10"
         in="SourceGraphic"
         operator="arithmetic"
         k1="0.5"
         k3="0.5"
         id="feComposite56" />
      <feTurbulence
         result="result11"
         type="fractalNoise"
         numOctaves="3"
         baseFrequency="0.07"
         id="feTurbulence56" />
      <feDisplacementMap
         result="result12"
         in2="result11"
         in="result10"
         xChannelSelector="R"
         scale="10"
         id="feDisplacementMap56" />
      <feComposite
         operator="arithmetic"
         result="result13"
         in="SourceGraphic"
         in2="result12"
         k1="0.25"
         k2="0.25"
         k3="0.75"
         id="feComposite57" />
    </filter>
  </defs>
  <g
     inkscape:label="Layer 1"
     inkscape:groupmode="layer"
     id="layer1">
    <g
       id="g25" />
    <rect
       style="fill:#808080;stroke:#1a1a1a;stroke-width:9.06367;stroke-miterlimit:3.3;stroke-dasharray:none;paint-order:markers stroke fill"
       id="rect1"
       width="58.092007"
       height="58.092007"
       x="138.0513"
       y="43.446125"
       ry="3.4995182"
       inkscape:export-filename="ScaleGrid.png"
       inkscape:export-xdpi="24.228968"
       inkscape:export-ydpi="24.228968" />
    <path
       sodipodi:type="star"
       style="fill:#808080;stroke:#1a1a1a;stroke-width:1.86517494;stroke-miterlimit:3.3;stroke-dasharray:none;paint-order:markers stroke fill"
       id="path3"
       inkscape:flatsided="false"
       sodipodi:sides="3"
       sodipodi:cx="21.295298"
       sodipodi:cy="106.47649"
       sodipodi:r1="12.696008"
       sodipodi:r2="6.3480039"
       sodipodi:arg1="0.52359878"
       sodipodi:arg2="1.5707963"
       inkscape:rounded="0"
       inkscape:randomized="0"
       d="m 32.290363,112.82449 -10.995065,0 -10.995066,0 5.497533,-9.52201 5.497533,-9.522002 5.497532,9.522002 z"
       inkscape:transform-center-y="-3.7074314"
       transform="matrix(0.98436108,0,0,1.1680634,53.87192,-52.322926)"
       inkscape:export-filename="res/img/ui/res/img/ui/res/img/ui/Enabled.png"
       inkscape:export-xdpi="24.228968"
       inkscape:export-ydpi="24.228968" />
    <path
       sodipodi:type="star"
       style="fill:#cccccc;stroke:#e6e6e6;stroke-width:1.86517494;stroke-miterlimit:3.3;stroke-dasharray:none;paint-order:markers stroke fill"
       id="path1"
       inkscape:flatsided="false"
       sodipodi:sides="3"
       sodipodi:cx="21.295298"
       sodipodi:cy="106.47649"
       sodipodi:r1="12.696008"
       sodipodi:r2="6.3480039"
       sodipodi:arg1="0.52359878"
       sodipodi:arg2="1.5707963"
       inkscape:rounded="0"
       inkscape:randomized="0"
       d="m 32.290363,112.82449 -10.995065,0 -10.995066,0 5.497533,-9.52201 5.497533,-9.522002 5.497532,9.522002 z"
       inkscape:transform-center-y="-3.7074306"
       transform="matrix(0.98436108,0,0,1.1680634,53.87192,-22.721868)"
       inkscape:export-filename="Disabled.png"
       inkscape:export-xdpi="24.228968"
       inkscape:export-ydpi="24.228968" />
    <path
       sodipodi:type="star"
       style="fill:#cccccc;stroke:#cccccc;stroke-width:1.86517494;stroke-miterlimit:3.3;stroke-dasharray:none;paint-order:markers stroke fill"
       id="path2"
       inkscape:flatsided="false"
       sodipodi:sides="3"
       sodipodi:cx="21.295298"
       sodipodi:cy="106.47649"
       sodipodi:r1="12.696008"
       sodipodi:r2="6.3480039"
       sodipodi:arg1="0.52359878"
       sodipodi:arg2="1.5707963"
       inkscape:rounded="0"
       inkscape:randomized="0"
       d="m 32.290363,112.82449 -10.995065,0 -10.995066,0 5.497533,-9.52201 5.497533,-9.522002 5.497532,9.522002 z"
       inkscape:transform-center-y="-3.707431"
       transform="matrix(0.98436108,0,0,1.1680634,53.87192,6.8791894)"
       inkscape:export-filename="Hover.png"
       inkscape:export-xdpi="24.228968"
       inkscape:export-ydpi="24.228968" />
    <path
       sodipodi:type="star"
       style="fill:#1a1a1a;stroke:#1a1a1a;stroke-width:1.8787309;stroke-miterlimit:3.3;stroke-dasharray:none;paint-order:markers stroke fill"
       id="path4"
       inkscape:flatsided="false"
       sodipodi:sides="3"
       sodipodi:cx="21.295298"
       sodipodi:cy="106.47649"
       sodipodi:r1="12.696008"
       sodipodi:r2="6.3480039"
       sodipodi:arg1="0.52359878"
       sodipodi:arg2="1.5707963"
       inkscape:rounded="0"
       inkscape:randomized="0"
       d="m 32.290363,112.82449 -10.995065,0 -10.995066,0 5.497533,-9.52201 5.497533,-9.522002 5.497532,9.522002 z"
       inkscape:transform-center-y="-3.6479221"
       transform="matrix(0.98603499,0,0,1.1493135,53.836274,38.182372)"
       inkscape:export-filename="Loading.png"
       inkscape:export-xdpi="24.228968"
       inkscape:export-ydpi="24.228968" />
    <path
       sodipodi:type="star"
       style="fill:#1a1a1a;stroke:#cccccc;stroke-width:1.86072607;stroke-miterlimit:3.3;stroke-dasharray:none;paint-order:markers stroke fill"
       id="path5"
       inkscape:flatsided="false"
       sodipodi:sides="3"
       sodipodi:cx="21.295298"
       sodipodi:cy="106.47649"
       sodipodi:r1="12.696008"
       sodipodi:r2="6.3480039"
       sodipodi:arg1="0.52359878"
       sodipodi:arg2="1.5707963"
       inkscape:rounded="0"
       inkscape:randomized="0"
       d="m 32.290363,112.82449 -10.995065,0 -10.995066,0 5.497533,-9.52201 5.497533,-9.522002 5.497532,9.522002 z"
       inkscape:transform-center-y="-3.7272813"
       transform="matrix(0.98380641,0,0,1.1743173,53.883732,65.072125)"
       inkscape:export-filename="Active.png"
       inkscape:export-xdpi="24.228968"
       inkscape:export-ydpi="24.228968" />
    <path
       id="rect2"
       style="fill:#1a1a1a;stroke:#1a1a1a;stroke-width:9.06367;stroke-miterlimit:3.3;stroke-dasharray:none;paint-order:markers stroke fill"
       d="m 141.55079,43.436214 c -1.93874,0 -3.49972,1.560511 -3.49972,3.499238 v 0.55596 h 58.09201 v -0.55596 c 0,-1.938727 -1.56052,-3.499238 -3.49926,-3.499238 z" />
    <path
       id="path6"
       style="fill:#808080;stroke:#1a1a1a;stroke-width:2;stroke-miterlimit:3.3;stroke-dasharray:none;paint-order:markers stroke fill"
       d="m 34.590949,53.900673 -4.666761,2.694504 -4.66676,2.694505 4.66676,2.694504 4.666761,2.694505 v -3.226986 a 7.3222461,7.3222461 0 0 1 6.828784,7.173386 7.3222461,7.3222461 0 0 1 -7.182355,7.453787 7.3222461,7.3222461 0 0 1 -7.459925,-7.177161 7.3222461,7.3222461 0 0 1 -9.13e-4,-0.113766 l -4.890988,0.0203 a 12.213066,12.213066 0 0 0 7.623225,11.267071 12.213066,12.213066 0 0 0 13.317687,-2.774753 12.213066,12.213066 0 0 0 2.48916,-13.374337 12.213066,12.213066 0 0 0 -10.724675,-7.371649 z"
       inkscape:export-filename="Enabled"
       inkscape:export-xdpi="24.228968"
       inkscape:export-ydpi="24.228968" />
    <path
       id="path7"
       style="fill:#cccccc;stroke:#e6e6e6;stroke-width:2;stroke-miterlimit:3.3;stroke-dasharray:none;paint-order:markers stroke fill"
       d="m 34.590949,86.405043 -4.666761,2.694504 -4.66676,2.694505 4.66676,2.694504 4.666761,2.694505 v -3.226986 a 7.3222461,7.3222461 0 0 1 6.828784,7.173385 7.3222461,7.3222461 0 0 1 -7.182355,7.45379 7.3222461,7.3222461 0 0 1 -7.459925,-7.17716 7.3222461,7.3222461 0 0 1 -9.13e-4,-0.11377 l -4.890988,0.0203 a 12.213066,12.213066 0 0 0 7.623225,11.26707 12.213066,12.213066 0 0 0 13.317687,-2.77475 12.213066,12.213066 0 0 0 2.48916,-13.374338 12.213066,12.213066 0 0 0 -10.724675,-7.371649 z"
       inkscape:export-filename="Disabled.png"
       inkscape:export-xdpi="24.228968"
       inkscape:export-ydpi="24.228968" />
    <path
       id="path8"
       style="fill:#b3b3b3;stroke:#b3b3b3;stroke-width:2;stroke-miterlimit:3.3;stroke-dasharray:none;paint-order:markers stroke fill"
       d="m 34.590949,119.36332 -4.666761,2.6945 -4.66676,2.69451 4.66676,2.6945 4.666761,2.69451 v -3.22699 a 7.3222461,7.3222461 0 0 1 6.828784,7.17338 7.3222461,7.3222461 0 0 1 -7.182355,7.45379 7.3222461,7.3222461 0 0 1 -7.459925,-7.17716 7.3222461,7.3222461 0 0 1 -9.13e-4,-0.11377 l -4.890988,0.0203 a 12.213066,12.213066 0 0 0 7.623225,11.26707 12.213066,12.213066 0 0 0 13.317687,-2.77475 12.213066,12.213066 0 0 0 2.48916,-13.37433 12.213066,12.213066 0 0 0 -10.724675,-7.37165 z"
       inkscape:export-filename="Hover.png"
       inkscape:export-xdpi="24.228968"
       inkscape:export-ydpi="24.228968" />
    <path
       id="path9"
       style="fill:#1a1a1a;stroke:#1a1a1a;stroke-width:2;stroke-miterlimit:3.3;stroke-dasharray:none;paint-order:markers stroke fill"
       d="m 34.590949,153.01545 -4.666761,2.6945 -4.66676,2.69451 4.66676,2.6945 4.666761,2.69451 v -3.22699 a 7.3222461,7.3222461 0 0 1 6.828784,7.17338 7.3222461,7.3222461 0 0 1 -7.182355,7.45379 7.3222461,7.3222461 0 0 1 -7.459925,-7.17716 7.3222461,7.3222461 0 0 1 -9.13e-4,-0.11377 l -4.890988,0.0203 a 12.213066,12.213066 0 0 0 7.623225,11.26707 12.213066,12.213066 0 0 0 13.317687,-2.77475 12.213066,12.213066 0 0 0 2.48916,-13.37433 12.213066,12.213066 0 0 0 -10.724675,-7.37165 z"
       inkscape:export-filename="Loading.png"
       inkscape:export-xdpi="24.228968"
       inkscape:export-ydpi="24.228968" />
    <path
       id="path10"
       style="fill:#1a1a1a;stroke:#cccccc;stroke-width:2;stroke-miterlimit:3.3;stroke-dasharray:none;paint-order:markers stroke fill"
       d="m 34.590949,185.6268 -4.666761,2.6945 -4.66676,2.69451 4.66676,2.6945 4.666761,2.69451 v -3.22699 a 7.3222461,7.3222461 0 0 1 6.828784,7.17338 7.3222461,7.3222461 0 0 1 -7.182355,7.45379 7.3222461,7.3222461 0 0 1 -7.459925,-7.17716 7.3222461,7.3222461 0 0 1 -9.13e-4,-0.11377 l -4.890988,0.0203 a 12.213066,12.213066 0 0 0 7.623225,11.26707 12.213066,12.213066 0 0 0 13.317687,-2.77475 12.213066,12.213066 0 0 0 2.48916,-13.37433 12.213066,12.213066 0 0 0 -10.724675,-7.37165 z"
       inkscape:export-filename="Active.png"
       inkscape:export-xdpi="24.228968"
       inkscape:export-ydpi="24.228968" />
    <path
       id="path25"
       style="fill:#999999;stroke:#1a1a1a;stroke-width:2;stroke-miterlimit:3.3;stroke-dasharray:none;paint-order:markers stroke fill"
       d="m 112.77416,55.63022 c -0.66184,0 -1.19463,0.532795 -1.19463,1.19463 v 7.168089 c 0,0.661829 0.53279,1.19463 1.19463,1.19463 0.66182,0 1.19463,-0.532801 1.19463,-1.19463 V 56.82485 c 0,-0.661835 -0.53281,-1.19463 -1.19463,-1.19463 z m -1.81127,3.657597 a 9.3738825,9.3738825 0 0 0 -5.23765,3.018226 9.3738825,9.3738825 0 0 0 -2.15676,4.376186 h 0.0101 a 9.3738825,9.3738825 0 0 0 -0.002,0.0081 h 2.79969 a 6.6489166,6.6489166 0 0 1 0.003,-0.0081 h 0.006 a 6.6489166,6.6489166 0 0 1 1.69079,-2.885094 6.6489166,6.6489166 0 0 1 0.001,-0.0013 6.6489166,6.6489166 0 0 1 10e-4,-0.0013 6.6489166,6.6489166 0 0 1 2.8851,-1.690798 v -0.0063 a 6.6489166,6.6489166 0 0 1 0.008,-0.0025 v -2.799373 a 9.3738825,9.3738825 0 0 0 -0.008,0.0019 z m 3.62253,0 v 0.01005 a 9.3738825,9.3738825 0 0 0 -0.008,-0.0019 v 2.799373 a 6.6489166,6.6489166 0 0 1 0.008,0.0025 v 0.0063 a 6.6489166,6.6489166 0 0 1 2.88509,1.690798 6.6489166,6.6489166 0 0 1 0.003,0.0025 6.6489166,6.6489166 0 0 1 1.69047,2.885094 h 0.006 a 6.6489166,6.6489166 0 0 1 0.003,0.0081 h 2.79937 a 9.3738825,9.3738825 0 0 0 -0.002,-0.0081 h 0.01 a 9.3738825,9.3738825 0 0 0 -2.15643,-4.376186 9.3738825,9.3738825 0 0 0 -5.23766,-3.018226 z m -13.4799,8.011049 c -0.66184,0 -1.194632,0.532801 -1.194632,1.194631 0,0.661835 0.532792,1.194623 1.194632,1.194623 h 7.16808 c 0.66183,0 1.19463,-0.532788 1.19463,-1.194623 0,-0.66183 -0.5328,-1.194631 -1.19463,-1.194631 z m 16.16887,0 c -0.66183,0 -1.19463,0.532801 -1.19463,1.194631 0,0.661835 0.5328,1.194623 1.19463,1.194623 h 7.16809 c 0.66183,0 1.19463,-0.532788 1.19463,-1.194623 0,-0.66183 -0.5328,-1.194631 -1.19463,-1.194631 z m -13.69747,2.997446 a 9.3738825,9.3738825 0 0 0 0.002,0.0084 h -0.0101 a 9.3738825,9.3738825 0 0 0 2.15675,4.376187 9.3738825,9.3738825 0 0 0 0.86148,0.861472 9.3738825,9.3738825 0 0 0 4.37618,2.156433 v -0.0097 a 9.3738825,9.3738825 0 0 0 0.008,0.0019 V 74.89131 a 6.6489166,6.6489166 0 0 1 -0.008,-0.0025 v -0.0063 a 6.6489166,6.6489166 0 0 1 -2.88509,-1.690464 6.6489166,6.6489166 0 0 1 -0.001,-0.0013 6.6489166,6.6489166 0 0 1 -0.001,-0.0013 6.6489166,6.6489166 0 0 1 -1.69079,-2.885094 h -0.006 a 6.6489166,6.6489166 0 0 1 -0.003,-0.0084 z m 15.5951,0 a 6.6489166,6.6489166 0 0 1 -0.003,0.0084 h -0.006 a 6.6489166,6.6489166 0 0 1 -1.69275,2.88737 6.6489166,6.6489166 0 0 1 -2.88509,1.690464 v 0.0063 a 6.6489166,6.6489166 0 0 1 -0.008,0.0025 v 2.799694 a 9.3738825,9.3738825 0 0 0 0.008,-0.0019 v 0.0097 a 9.3738825,9.3738825 0 0 0 4.37619,-2.156433 9.3738825,9.3738825 0 0 0 0.86147,-0.861472 9.3738825,9.3738825 0 0 0 0.001,-0.0013 9.3738825,9.3738825 0 0 0 2.15546,-4.374886 h -0.01 a 9.3738825,9.3738825 0 0 0 0.002,-0.0084 z m -6.39786,1.502786 c -0.66184,0 -1.19463,0.532794 -1.19463,1.194623 v 7.168089 c 0,0.661835 0.53279,1.19463 1.19463,1.19463 0.66182,0 1.19463,-0.532795 1.19463,-1.19463 v -7.168089 c 0,-0.661829 -0.53281,-1.194623 -1.19463,-1.194623 z"
       inkscape:export-filename="Enabled.png"
       inkscape:export-xdpi="24.228968"
       inkscape:export-ydpi="24.228968" />
    <path
       id="path29"
       style="fill:#cccccc;stroke:#e6e6e6;stroke-width:2;stroke-miterlimit:3.3;stroke-dasharray:none;paint-order:markers stroke fill"
       d="m 112.77416,86.785352 c -0.66184,0 -1.19463,0.532795 -1.19463,1.19463 v 7.168089 c 0,0.661829 0.53279,1.19463 1.19463,1.19463 0.66182,0 1.19463,-0.532801 1.19463,-1.19463 v -7.168089 c 0,-0.661835 -0.53281,-1.19463 -1.19463,-1.19463 z m -1.81127,3.657597 a 9.3738825,9.3738825 0 0 0 -5.23765,3.018226 9.3738825,9.3738825 0 0 0 -2.15676,4.376186 h 0.0101 a 9.3738825,9.3738825 0 0 0 -0.002,0.0081 h 2.79969 a 6.6489166,6.6489166 0 0 1 0.003,-0.0081 h 0.006 a 6.6489166,6.6489166 0 0 1 1.69079,-2.885094 6.6489166,6.6489166 0 0 1 0.001,-0.0013 6.6489166,6.6489166 0 0 1 10e-4,-0.0013 6.6489166,6.6489166 0 0 1 2.8851,-1.690798 v -0.0063 a 6.6489166,6.6489166 0 0 1 0.008,-0.0025 v -2.799373 a 9.3738825,9.3738825 0 0 0 -0.008,0.0019 z m 3.62253,0 v 0.01005 a 9.3738825,9.3738825 0 0 0 -0.008,-0.0019 v 2.799373 a 6.6489166,6.6489166 0 0 1 0.008,0.0025 v 0.0063 a 6.6489166,6.6489166 0 0 1 2.88509,1.690798 6.6489166,6.6489166 0 0 1 0.003,0.0025 6.6489166,6.6489166 0 0 1 1.69047,2.885094 h 0.006 a 6.6489166,6.6489166 0 0 1 0.003,0.0081 h 2.79937 a 9.3738825,9.3738825 0 0 0 -0.002,-0.0081 h 0.01 a 9.3738825,9.3738825 0 0 0 -2.15643,-4.376186 9.3738825,9.3738825 0 0 0 -5.23766,-3.018226 z m -13.4799,8.011049 c -0.66184,0 -1.194632,0.532801 -1.194632,1.194631 0,0.661831 0.532792,1.194621 1.194632,1.194621 h 7.16808 c 0.66183,0 1.19463,-0.53279 1.19463,-1.194621 0,-0.66183 -0.5328,-1.194631 -1.19463,-1.194631 z m 16.16887,0 c -0.66183,0 -1.19463,0.532801 -1.19463,1.194631 0,0.661831 0.5328,1.194621 1.19463,1.194621 h 7.16809 c 0.66183,0 1.19463,-0.53279 1.19463,-1.194621 0,-0.66183 -0.5328,-1.194631 -1.19463,-1.194631 z m -13.69747,2.997442 a 9.3738825,9.3738825 0 0 0 0.002,0.008 h -0.0101 a 9.3738825,9.3738825 0 0 0 2.15675,4.37619 9.3738825,9.3738825 0 0 0 0.86148,0.86147 9.3738825,9.3738825 0 0 0 4.37618,2.15644 v -0.01 a 9.3738825,9.3738825 0 0 0 0.008,0.002 v -2.7997 a 6.6489166,6.6489166 0 0 1 -0.008,-0.002 v -0.006 a 6.6489166,6.6489166 0 0 1 -2.88509,-1.69046 6.6489166,6.6489166 0 0 1 -0.001,-0.001 6.6489166,6.6489166 0 0 1 -0.001,-0.001 6.6489166,6.6489166 0 0 1 -1.69079,-2.8851 h -0.006 a 6.6489166,6.6489166 0 0 1 -0.003,-0.008 z m 15.5951,0 a 6.6489166,6.6489166 0 0 1 -0.003,0.008 h -0.006 a 6.6489166,6.6489166 0 0 1 -1.69275,2.88737 6.6489166,6.6489166 0 0 1 -2.88509,1.69047 v 0.006 a 6.6489166,6.6489166 0 0 1 -0.008,0.002 v 2.79969 a 9.3738825,9.3738825 0 0 0 0.008,-0.002 v 0.01 a 9.3738825,9.3738825 0 0 0 4.37619,-2.15643 9.3738825,9.3738825 0 0 0 0.86147,-0.86147 9.3738825,9.3738825 0 0 0 0.001,-0.001 9.3738825,9.3738825 0 0 0 2.15546,-4.37489 h -0.01 a 9.3738825,9.3738825 0 0 0 0.002,-0.008 z m -6.39786,1.50279 c -0.66184,0 -1.19463,0.53279 -1.19463,1.19462 v 7.16809 c 0,0.66184 0.53279,1.19463 1.19463,1.19463 0.66182,0 1.19463,-0.53279 1.19463,-1.19463 v -7.16809 c 0,-0.66183 -0.53281,-1.19462 -1.19463,-1.19462 z"
       inkscape:export-filename="Disabled.png"
       inkscape:export-xdpi="24.228968"
       inkscape:export-ydpi="24.228968" />
    <path
       id="path30"
       style="fill:#cccccc;stroke:#cccccc;stroke-width:2;stroke-miterlimit:3.3;stroke-dasharray:none;paint-order:markers stroke fill"
       d="m 112.77416,118.1858 c -0.66184,0 -1.19463,0.53279 -1.19463,1.19463 v 7.16809 c 0,0.66183 0.53279,1.19463 1.19463,1.19463 0.66182,0 1.19463,-0.5328 1.19463,-1.19463 v -7.16809 c 0,-0.66184 -0.53281,-1.19463 -1.19463,-1.19463 z m -1.81127,3.6576 a 9.3738825,9.3738825 0 0 0 -5.23765,3.01822 9.3738825,9.3738825 0 0 0 -2.15676,4.37619 h 0.0101 a 9.3738825,9.3738825 0 0 0 -0.002,0.008 h 2.79969 a 6.6489166,6.6489166 0 0 1 0.003,-0.008 h 0.006 a 6.6489166,6.6489166 0 0 1 1.69079,-2.8851 6.6489166,6.6489166 0 0 1 0.001,-0.001 6.6489166,6.6489166 0 0 1 10e-4,-0.001 6.6489166,6.6489166 0 0 1 2.8851,-1.69079 v -0.006 a 6.6489166,6.6489166 0 0 1 0.008,-0.002 v -2.79938 a 9.3738825,9.3738825 0 0 0 -0.008,0.002 z m 3.62253,0 v 0.01 a 9.3738825,9.3738825 0 0 0 -0.008,-0.002 v 2.79937 a 6.6489166,6.6489166 0 0 1 0.008,0.002 v 0.006 a 6.6489166,6.6489166 0 0 1 2.88509,1.6908 6.6489166,6.6489166 0 0 1 0.003,0.002 6.6489166,6.6489166 0 0 1 1.69047,2.88509 h 0.006 a 6.6489166,6.6489166 0 0 1 0.003,0.008 h 2.79937 a 9.3738825,9.3738825 0 0 0 -0.002,-0.008 h 0.01 a 9.3738825,9.3738825 0 0 0 -2.15643,-4.37618 9.3738825,9.3738825 0 0 0 -5.23766,-3.01823 z m -13.4799,8.01105 c -0.66184,0 -1.194632,0.5328 -1.194632,1.19463 0,0.66183 0.532792,1.19462 1.194632,1.19462 h 7.16808 c 0.66183,0 1.19463,-0.53279 1.19463,-1.19462 0,-0.66183 -0.5328,-1.19463 -1.19463,-1.19463 z m 16.16887,0 c -0.66183,0 -1.19463,0.5328 -1.19463,1.19463 0,0.66183 0.5328,1.19462 1.19463,1.19462 h 7.16809 c 0.66183,0 1.19463,-0.53279 1.19463,-1.19462 0,-0.66183 -0.5328,-1.19463 -1.19463,-1.19463 z m -13.69747,2.99744 a 9.3738825,9.3738825 0 0 0 0.002,0.008 h -0.0101 a 9.3738825,9.3738825 0 0 0 2.15675,4.37619 9.3738825,9.3738825 0 0 0 0.86148,0.86147 9.3738825,9.3738825 0 0 0 4.37618,2.15644 v -0.01 a 9.3738825,9.3738825 0 0 0 0.008,0.002 v -2.7997 a 6.6489166,6.6489166 0 0 1 -0.008,-0.002 v -0.006 a 6.6489166,6.6489166 0 0 1 -2.88509,-1.69046 6.6489166,6.6489166 0 0 1 -0.001,-0.001 6.6489166,6.6489166 0 0 1 -0.001,-10e-4 6.6489166,6.6489166 0 0 1 -1.69079,-2.8851 h -0.006 a 6.6489166,6.6489166 0 0 1 -0.003,-0.008 z m 15.5951,0 a 6.6489166,6.6489166 0 0 1 -0.003,0.008 h -0.006 a 6.6489166,6.6489166 0 0 1 -1.69275,2.88737 6.6489166,6.6489166 0 0 1 -2.88509,1.69047 v 0.006 a 6.6489166,6.6489166 0 0 1 -0.008,0.002 v 2.79969 a 9.3738825,9.3738825 0 0 0 0.008,-0.002 v 0.01 a 9.3738825,9.3738825 0 0 0 4.37619,-2.15643 9.3738825,9.3738825 0 0 0 0.86147,-0.86147 9.3738825,9.3738825 0 0 0 0.001,-0.001 9.3738825,9.3738825 0 0 0 2.15546,-4.37489 h -0.01 a 9.3738825,9.3738825 0 0 0 0.002,-0.008 z m -6.39786,1.50279 c -0.66184,0 -1.19463,0.53279 -1.19463,1.19462 v 7.16809 c 0,0.66184 0.53279,1.19463 1.19463,1.19463 0.66182,0 1.19463,-0.53279 1.19463,-1.19463 v -7.16809 c 0,-0.66183 -0.53281,-1.19462 -1.19463,-1.19462 z"
       inkscape:export-filename="Hover.png"
       inkscape:export-xdpi="24.228968"
       inkscape:export-ydpi="24.228968" />
    <path
       id="path31"
       style="fill:#1a1a1a;stroke:#1a1a1a;stroke-width:2;stroke-miterlimit:3.3;stroke-dasharray:none;paint-order:markers stroke fill"
       d="m 112.77416,147.86904 c -0.66184,0 -1.19463,0.53279 -1.19463,1.19463 v 7.16809 c 0,0.66183 0.53279,1.19463 1.19463,1.19463 0.66182,0 1.19463,-0.5328 1.19463,-1.19463 v -7.16809 c 0,-0.66184 -0.53281,-1.19463 -1.19463,-1.19463 z m -1.81127,3.6576 a 9.3738825,9.3738825 0 0 0 -5.23765,3.01822 9.3738825,9.3738825 0 0 0 -2.15676,4.37619 h 0.0101 a 9.3738825,9.3738825 0 0 0 -0.002,0.008 h 2.79969 a 6.6489166,6.6489166 0 0 1 0.003,-0.008 h 0.006 a 6.6489166,6.6489166 0 0 1 1.69079,-2.8851 6.6489166,6.6489166 0 0 1 0.001,-0.001 6.6489166,6.6489166 0 0 1 10e-4,-0.001 6.6489166,6.6489166 0 0 1 2.8851,-1.69079 v -0.006 a 6.6489166,6.6489166 0 0 1 0.008,-0.002 v -2.79938 a 9.3738825,9.3738825 0 0 0 -0.008,0.002 z m 3.62253,0 v 0.01 a 9.3738825,9.3738825 0 0 0 -0.008,-0.002 v 2.79937 a 6.6489166,6.6489166 0 0 1 0.008,0.002 v 0.006 a 6.6489166,6.6489166 0 0 1 2.88509,1.6908 6.6489166,6.6489166 0 0 1 0.003,0.002 6.6489166,6.6489166 0 0 1 1.69047,2.88509 h 0.006 a 6.6489166,6.6489166 0 0 1 0.003,0.008 h 2.79937 a 9.3738825,9.3738825 0 0 0 -0.002,-0.008 h 0.01 a 9.3738825,9.3738825 0 0 0 -2.15643,-4.37618 9.3738825,9.3738825 0 0 0 -5.23766,-3.01823 z m -13.4799,8.01105 c -0.66184,0 -1.194632,0.5328 -1.194632,1.19463 0,0.66183 0.532792,1.19462 1.194632,1.19462 h 7.16808 c 0.66183,0 1.19463,-0.53279 1.19463,-1.19462 0,-0.66183 -0.5328,-1.19463 -1.19463,-1.19463 z m 16.16887,0 c -0.66183,0 -1.19463,0.5328 -1.19463,1.19463 0,0.66183 0.5328,1.19462 1.19463,1.19462 h 7.16809 c 0.66183,0 1.19463,-0.53279 1.19463,-1.19462 0,-0.66183 -0.5328,-1.19463 -1.19463,-1.19463 z m -13.69747,2.99744 a 9.3738825,9.3738825 0 0 0 0.002,0.008 h -0.0101 a 9.3738825,9.3738825 0 0 0 2.15675,4.37619 9.3738825,9.3738825 0 0 0 0.86148,0.86147 9.3738825,9.3738825 0 0 0 4.37618,2.15644 v -0.01 a 9.3738825,9.3738825 0 0 0 0.008,0.002 v -2.7997 a 6.6489166,6.6489166 0 0 1 -0.008,-0.002 v -0.006 a 6.6489166,6.6489166 0 0 1 -2.88509,-1.69046 6.6489166,6.6489166 0 0 1 -0.001,-0.001 6.6489166,6.6489166 0 0 1 -0.001,-0.001 6.6489166,6.6489166 0 0 1 -1.69079,-2.8851 h -0.006 a 6.6489166,6.6489166 0 0 1 -0.003,-0.008 z m 15.5951,0 a 6.6489166,6.6489166 0 0 1 -0.003,0.008 h -0.006 a 6.6489166,6.6489166 0 0 1 -1.69275,2.88737 6.6489166,6.6489166 0 0 1 -2.88509,1.69047 v 0.006 a 6.6489166,6.6489166 0 0 1 -0.008,0.002 v 2.79969 a 9.3738825,9.3738825 0 0 0 0.008,-0.002 v 0.01 a 9.3738825,9.3738825 0 0 0 4.37619,-2.15643 9.3738825,9.3738825 0 0 0 0.86147,-0.86147 9.3738825,9.3738825 0 0 0 0.001,-0.001 9.3738825,9.3738825 0 0 0 2.15546,-4.37489 h -0.01 a 9.3738825,9.3738825 0 0 0 0.002,-0.008 z m -6.39786,1.50279 c -0.66184,0 -1.19463,0.53279 -1.19463,1.19462 v 7.16809 c 0,0.66184 0.53279,1.19463 1.19463,1.19463 0.66182,0 1.19463,-0.53279 1.19463,-1.19463 v -7.16809 c 0,-0.66183 -0.53281,-1.19462 -1.19463,-1.19462 z"
       inkscape:export-filename="Loading.png"
       inkscape:export-xdpi="24.228968"
       inkscape:export-ydpi="24.228968" />
    <path
       id="path32"
       style="fill:#1a1a1a;stroke:#cccccc;stroke-width:2;stroke-miterlimit:3.3;stroke-dasharray:none;paint-order:markers stroke fill"
       d="m 112.77416,176.08038 c -0.66184,0 -1.19463,0.53279 -1.19463,1.19463 v 7.16809 c 0,0.66183 0.53279,1.19463 1.19463,1.19463 0.66182,0 1.19463,-0.5328 1.19463,-1.19463 v -7.16809 c 0,-0.66184 -0.53281,-1.19463 -1.19463,-1.19463 z m -1.81127,3.6576 a 9.3738825,9.3738825 0 0 0 -5.23765,3.01822 9.3738825,9.3738825 0 0 0 -2.15676,4.37619 h 0.0101 a 9.3738825,9.3738825 0 0 0 -0.002,0.008 h 2.79969 a 6.6489166,6.6489166 0 0 1 0.003,-0.008 h 0.006 a 6.6489166,6.6489166 0 0 1 1.69079,-2.8851 6.6489166,6.6489166 0 0 1 0.001,-0.001 6.6489166,6.6489166 0 0 1 10e-4,-10e-4 6.6489166,6.6489166 0 0 1 2.8851,-1.69079 v -0.006 a 6.6489166,6.6489166 0 0 1 0.008,-0.002 v -2.79938 a 9.3738825,9.3738825 0 0 0 -0.008,0.002 z m 3.62253,0 v 0.01 a 9.3738825,9.3738825 0 0 0 -0.008,-0.002 v 2.79937 a 6.6489166,6.6489166 0 0 1 0.008,0.002 v 0.006 a 6.6489166,6.6489166 0 0 1 2.88509,1.6908 6.6489166,6.6489166 0 0 1 0.003,0.002 6.6489166,6.6489166 0 0 1 1.69047,2.88509 h 0.006 a 6.6489166,6.6489166 0 0 1 0.003,0.008 h 2.79937 a 9.3738825,9.3738825 0 0 0 -0.002,-0.008 h 0.01 a 9.3738825,9.3738825 0 0 0 -2.15643,-4.37618 9.3738825,9.3738825 0 0 0 -5.23766,-3.01823 z m -13.4799,8.01105 c -0.66184,0 -1.194632,0.5328 -1.194632,1.19463 0,0.66183 0.532792,1.19462 1.194632,1.19462 h 7.16808 c 0.66183,0 1.19463,-0.53279 1.19463,-1.19462 0,-0.66183 -0.5328,-1.19463 -1.19463,-1.19463 z m 16.16887,0 c -0.66183,0 -1.19463,0.5328 -1.19463,1.19463 0,0.66183 0.5328,1.19462 1.19463,1.19462 h 7.16809 c 0.66183,0 1.19463,-0.53279 1.19463,-1.19462 0,-0.66183 -0.5328,-1.19463 -1.19463,-1.19463 z m -13.69747,2.99744 a 9.3738825,9.3738825 0 0 0 0.002,0.008 h -0.0101 a 9.3738825,9.3738825 0 0 0 2.15675,4.37619 9.3738825,9.3738825 0 0 0 0.86148,0.86147 9.3738825,9.3738825 0 0 0 4.37618,2.15644 v -0.01 a 9.3738825,9.3738825 0 0 0 0.008,0.002 v -2.7997 a 6.6489166,6.6489166 0 0 1 -0.008,-0.002 v -0.006 a 6.6489166,6.6489166 0 0 1 -2.88509,-1.69046 6.6489166,6.6489166 0 0 1 -0.001,-0.001 6.6489166,6.6489166 0 0 1 -0.001,-0.001 6.6489166,6.6489166 0 0 1 -1.69079,-2.8851 h -0.006 a 6.6489166,6.6489166 0 0 1 -0.003,-0.008 z m 15.5951,0 a 6.6489166,6.6489166 0 0 1 -0.003,0.008 h -0.006 a 6.6489166,6.6489166 0 0 1 -1.69275,2.88737 6.6489166,6.6489166 0 0 1 -2.88509,1.69047 v 0.006 a 6.6489166,6.6489166 0 0 1 -0.008,0.002 V 198.14 a 9.3738825,9.3738825 0 0 0 0.008,-0.002 v 0.01 a 9.3738825,9.3738825 0 0 0 4.37619,-2.15643 9.3738825,9.3738825 0 0 0 0.86147,-0.86147 9.3738825,9.3738825 0 0 0 0.001,-0.001 9.3738825,9.3738825 0 0 0 2.15546,-4.37489 h -0.01 a 9.3738825,9.3738825 0 0 0 0.002,-0.008 z m -6.39786,1.50279 c -0.66184,0 -1.19463,0.53279 -1.19463,1.19462 v 7.16809 c 0,0.66184 0.53279,1.19463 1.19463,1.19463 0.66182,0 1.19463,-0.53279 1.19463,-1.19463 v -7.16809 c 0,-0.66183 -0.53281,-1.19462 -1.19463,-1.19462 z"
       inkscape:export-filename="Active.png"
       inkscape:export-xdpi="24.228968"
       inkscape:export-ydpi="24.228968" />
  </g>
</svg>
